Patient4_TMGait_0pt4_02_right_03_EMG.mot
version=1
nRows=37
nColumns=33
inDegrees=no
endheader
time	1LAddLong	2LGlutMax	3LGlutMed	4LIliopsoas	5LSemiMemb	6LBicFemLong	7LRecFem	8LVastMed	9LVastLat	10LGasMed	11LTibAnt	12lTibPost	13LPeroneusLong	14LSol	15LExtDigLong	16LFlexDigLong	17RAddLong	18RGlutMax	19RGlutMed	20RIliopsoas	21RSemiMemb	22RBicFemLong	23RRecFem	24RVastMed	25RVastLat	26RGasMed	27RTibAnt	28RTibPost	29RPeroneusLong	30RSol	31RExtDigLong	32RFlexDigLong
3.735	-0.003357	0.19058	-0.069275	-0.012054	0.00946	-0.036469	0.099945	-0.001831	0.16174	-0.047607	0.000458	-0.004425	-0.07309	0.001984	0.13275	0.007324	-0.01709	-1.546	0.31815	-0.073242	-0.056915	0.12116	0.45212	0.24582	0.034485	0.012665	-0.13931	0.010986	-0.095673	-0.19592	0.003204	-0.010223
3.736	-0.016785	0.25787	-0.021667	0.009003	0.007477	-0.036011	0.036469	-0.00351	0.15503	-0.020447	-0.024109	-0.004578	-0.099182	-0.018768	0.29907	-0.013733	-0.00946	-1.5421	1.0841	-0.16174	0.12924	0.013733	0.33325	0.17716	0.062561	0.011444	-0.053406	0.01297	-0.009766	-0.21011	-0.009613	-0.00824
3.737	-0.009003	0.26504	0.005951	0.043488	0.005035	-0.041809	-0.056152	0.006104	0.13199	-0.033569	-0.039978	-0.011292	-0.079651	-0.04776	-0.13458	-0.018463	0.041046	-1.539	1.169	-0.17288	0.14862	-0.12955	0.27176	-0.007324	0.090179	0.000305	0.067902	0.01297	-0.72098	-0.17395	-0.004425	-0.006256
3.738	-0.013428	0.2684	-0.012665	0.054932	0.015259	-0.041046	-0.005341	0.00061	0.11704	-0.041199	0.009613	-0.009155	-0.052643	-0.068207	-0.33875	-0.00473	0.080261	-1.628	-0.045166	-0.12604	0.14069	-0.22171	0.40268	-0.14297	0.063171	-0.011597	0.44647	0.019226	-0.82932	-0.16159	-0.001984	0.004272
3.739	-0.012817	0.2594	-0.0383	0.029907	0.010223	-0.041656	0.019073	0.003204	0.11032	-0.061188	0.048676	0.002289	-0.012817	-0.058899	-0.005035	-0.004883	0.098114	-1.6985	-0.32883	0.041656	-0.029602	-0.20203	0.5368	-0.22705	0.032806	-0.00473	0.76416	0.014038	-0.27359	-0.093079	-0.003662	0.007172
3.74	-0.011292	0.28473	-0.087891	0.001373	0.008087	-0.027771	-0.052338	0.005188	0.12451	-0.013428	0.03891	-0.00351	-0.085907	-0.079651	-0.024414	-0.005951	0.026245	-1.6751	-0.21072	0.069275	-0.23254	0.023193	0.54291	-0.1651	0.02121	0.011292	0.76675	0.014954	-0.64774	-0.16327	-0.006561	0.009613
3.741	-0.007477	0.27451	-0.076599	-0.005188	0.01709	-0.049286	-0.10361	-0.001831	0.11902	-0.028534	0.053101	-0.001068	-0.073395	-0.074005	-0.16586	-0.012665	-0.074463	-1.7197	-0.24139	0.052185	-0.48096	0.1535	0.4541	0.054932	-0.003815	0.015869	-0.33417	0.013275	-0.92087	-0.11444	-0.005341	0.011749
3.742	-0.006866	0.25971	-0.089569	-0.011139	0.003967	-0.033569	-0.014648	0.006866	0.085449	-0.072021	0.064392	-0.002136	0.019684	-0.037079	-0.20233	0.010071	-0.10941	-1.8857	-0.69351	0.12451	0.35751	0.068817	0.38971	0.22201	0.041199	0.018463	-0.82642	0.012817	-0.73791	-0.079651	-0.005035	0.013733
3.743	-0.015106	0.26047	-0.11231	-0.005188	0.003967	-0.019226	0.12863	0.006866	0.098114	-0.072937	-0.019684	-0.001068	0.06485	-0.031586	0.96481	0.016937	-0.065002	-2.0285	-0.81604	0.12756	0.36423	0.016327	0.42557	0.15793	0.036163	0.016632	-0.73791	0.013123	2.2226	0.027924	-0.002747	0.010986
3.744	-0.013275	0.22873	-0.11826	-0.020447	0.006866	-0.02182	0.18738	0.022278	0.077515	-0.049591	0.12314	-0.002747	-0.037994	-0.00946	-0.121	0.008392	-0.11536	-2.0607	-1.2651	0.18097	0.004425	0.029449	0.3775	0.19592	-0.008392	0.013733	-0.42755	0.00946	0.8786	0.078735	-0.005341	0.003815
3.745	-0.011902	0.21606	-0.11581	-0.014954	0	-0.019073	0.18875	0.014343	0.082245	-0.038757	0.1445	-0.001678	-0.076141	-0.03067	-0.08316	0.006561	-0.08667	-2.0064	-1.4621	0.11429	-0.21515	0.072784	0.30548	0.22156	-0.050812	0.007477	-0.20142	0.011292	0.2652	0.21576	-0.007935	0.015564
3.746	-0.000916	0.20233	-0.098114	-0.010681	0.01297	-0.016479	0.12726	0.005493	0.065308	-0.058594	0.13702	-0.004425	-0.086517	0.031281	-0.16815	0.010681	-0.053101	-2.0943	-0.8165	0.045776	-0.36255	0.06958	0.3157	0.26123	-0.11963	0.001984	-0.01297	0.007935	0.032959	0.037537	-0.005798	0.00946
3.747	-0.007629	0.17883	-0.062866	0.020599	0.007324	-0.02121	0.037689	0.005188	0.054474	-0.057526	-0.10498	0.005035	-0.10315	0.071411	0.054016	-0.001068	-0.04837	-2.0833	-0.3096	0.042572	-0.19852	-0.002136	0.29892	0.38025	-0.12955	-0.006714	0.00473	0.006714	0.98328	-0.067444	-0.002136	-0.016632
3.748	-0.006409	0.14236	-0.047913	0.009003	0.008545	-0.007172	0.009918	-0.002136	0.043335	-0.056152	-0.10071	-0.000763	-0.12085	0.10681	0.15457	-0.011292	-0.029297	-2.1338	-0.15915	0.037842	0.33936	-0.12436	0.32257	0.33432	-0.11688	-0.011292	0.26977	0.007324	1.1498	-0.047455	-0.000916	-0.03006
3.749	-0.000153	0.12772	0.036163	0.021973	0.005493	-0.018921	0.060577	0.007019	0.038757	-0.063019	-0.19745	0.001831	-0.06134	0.036926	-0.13534	-0.020905	0.000763	-2.1445	-0.38711	0.074005	0.32806	-0.077515	0.23529	0.22339	-0.14557	-0.018616	0.5127	0.008545	0.59891	-0.02182	0.000153	-0.023346
3.75	-0.007019	0.14374	0.041962	0.014801	0.010529	0.000305	0.14664	0.003357	0.025635	-0.034943	-0.20813	0.001526	-0.098877	0.002441	-0.36774	-0.028381	0.02121	-2.0876	-1.0269	0.013733	0.18951	-0.027466	-0.17364	0.12283	-0.011902	-0.018616	0.41031	0.013733	0.009155	-0.14099	-0.000916	-0.022125
3.751	-0.009766	0.12009	-0.035706	0.013885	-0.001526	0.019836	0.0354	0.014954	0.003815	-0.023499	0.003357	0.002594	-0.075073	-0.056763	0.37338	-0.041199	-0.005646	-1.9659	0.32974	-0.14236	0.004883	0.044861	-0.49713	-0.16647	0.18524	-0.014343	-0.071869	0.006409	0.16113	-0.24689	-0.000153	-0.020294
3.752	-0.014496	0.073242	-0.065613	-0.007477	0.005188	0.012665	-0.098419	0.00946	0.004425	-0.062866	0.17578	0.001373	-0.010986	-0.05722	-0.14175	-0.018158	0.014801	-1.8951	1.4597	-0.22507	-0.25009	0.098877	0.009308	-0.1889	0.21286	-0.015869	-0.5777	0.011597	-0.057831	-0.098724	-0.002289	-0.020752
3.753	-0.013275	0.021515	-0.018158	-0.00946	0.003204	0.02182	-0.17349	0.00885	0.026703	-0.050812	-0.02533	0.003662	0.000305	-0.042267	0.037842	-0.006866	0.036011	-1.8558	0.1944	-0.13123	-0.29007	0.053558	0.39505	-0.048981	0.029602	-0.002899	-0.72815	0.009308	-0.47287	-0.21179	-0.003662	-0.017242
3.754	-0.008392	-0.034332	0.004425	0.004578	0.002289	0.003052	-0.11581	0.000763	0.039978	-0.045929	0.039368	0.00351	-0.065613	-0.037231	-0.064697	-0.019684	0.073242	-1.7316	-0.23758	-0.010834	-0.08194	0.003967	0.27237	-0.031586	-0.04425	-0.014954	-0.16541	0.008392	0.033264	-0.10483	-0.000153	-0.024567
3.755	-0.016022	-0.035706	0.011292	0.010986	0.005798	0.013733	-0.034332	-0.005493	0.020447	-0.048828	0.018463	0.007629	-0.084839	0.016632	0.010376	0.002289	0.083771	-1.5782	-0.1268	-0.006866	0.063629	0.037537	0.15366	-0.063477	-0.043945	-0.022278	0.078888	0.012665	0.44022	0.002594	-0.000763	-0.018005
3.756	-0.034943	-0.074768	0.004883	0.014648	0.005951	0.001678	-0.032959	0.005341	0.008087	-0.028687	-0.033569	-0.000305	-0.096893	0.025482	-0.050049	-0.010834	0.042419	-1.2717	-0.34088	-0.039063	-0.49942	0.16327	0.1474	-0.020905	0.005035	-0.00885	0.075073	0.005341	0.61401	-0.019531	0.001068	-0.012207
3.757	-0.028229	-0.10529	0.014191	0.009613	0.001221	0.005188	-0.097656	0.008087	0.016327	-0.02121	-0.11047	0.004272	-0.067596	-0.01709	-0.14114	-0.003967	0.014038	-1.0156	-0.50934	-0.064697	-0.80994	0.034332	-0.10346	-0.083618	-0.017548	-0.011292	0.32303	0.006409	-1.3873	0	-0.004883	-0.016479
3.758	-0.01236	-0.10468	0.020752	0.015564	0.008087	-0.001373	-0.24414	0.011444	0.003204	-0.028381	-0.13626	0.007935	-0.036011	0.05661	-0.084381	-0.015411	-0.018463	-0.78018	-0.080872	-0.044403	0.25406	-0.15579	-0.31647	-0.20386	0.053558	-0.013733	0.28336	0.008087	-0.89523	-0.030518	-0.005798	-0.01709
3.759	-0.008392	-0.16403	0.023499	0.019073	0.009308	0.001984	-0.23315	0.007324	-0.009308	-0.030518	0.001678	0.003662	-0.011444	0.011444	-0.097046	-0.013885	-0.029449	-0.51331	-0.13031	-0.03067	0.37598	-0.112	-0.45807	-0.20401	0.13077	-0.014038	0.23697	0.003967	-0.48843	-0.042572	-0.003662	-0.011597
3.76	0.001373	-0.23621	0.003662	0.009308	0.012817	-0.011597	-0.23682	0.005188	0.002289	-0.000916	0.064545	0.005341	-0.040894	-0.1387	0.052338	-0.029144	-0.043182	-0.22964	0.036469	0.086365	0.17364	0.10941	-0.47058	0.016785	0.13901	-0.005798	-0.003815	0.004578	0.73166	-0.029297	-0.003052	-0.011292
3.761	0.013275	-0.25955	-0.005798	0.016479	-0.000763	-0.01297	-0.044556	-0.006561	-0.001678	0	0.084381	-0.002136	-0.08667	-0.18875	0.12283	-0.005646	-0.00824	-0.088806	-0.057983	0.15274	0.103	0.20264	-0.2977	-0.015717	0.018005	0.001068	-0.39673	0.004578	1.9386	0.033569	-0.001221	-0.018768
3.762	0.00946	-0.33951	-0.002289	0.013123	0.00351	-0.005035	0.18356	-0.003052	-0.02533	-0.005188	0.054779	0.013885	-0.078583	-0.15595	0.13901	-0.012207	0.005951	0.071716	-0.65506	0.11261	-0.008545	0.18875	-0.14221	-0.044098	-0.036316	0.000305	-0.55679	0.007019	1.2152	0.12528	0.004272	-0.016022
3.763	-0.000763	-0.3923	0.006866	-0.001373	0.007324	0.00351	0.35675	0.003815	-0.04303	-0.018616	0.042114	-0.004425	-0.069427	-0.11704	0.14221	0.000916	-0.039978	0.20676	-0.61356	0.025177	-0.1712	0.19226	-0.13153	0.017548	-0.01358	-0.012207	-0.20874	0.003204	-0.69	0.28854	-0.001678	-0.02243
3.764	-0.001526	-0.44937	-0.02182	-0.004578	0.00824	-0.002747	0.4422	0.010529	-0.055847	-0.009308	0.12924	0.006104	-0.064392	-0.063477	0.13825	0.003204	-0.00412	0.35172	-0.23697	-0.024414	-0.39749	0.22598	-0.093994	0.08316	0.004883	-0.013733	0.002747	0.001221	-1.6093	0.15457	-0.007324	-0.016022
3.765	-0.010529	-0.46005	-0.022736	0.029449	0.001068	-0.02243	0.47623	0.018311	-0.054321	-0.014191	0.10376	0.001526	-0.055389	-0.023041	0.098114	-0.002289	-0.022278	0.45273	0.7161	0.032806	-0.2655	0.19821	-0.058136	0.13504	0.030212	-0.011139	-0.22598	0.002594	0.13534	0.16861	0.000458	-0.015259
3.766	-0.006409	-0.51392	-0.031891	0.061035	0.007935	0.002899	0.52841	0.014496	-0.059204	0.002289	0.023651	0.009155	-0.052338	-0.026703	0.085449	0.00351	-0.079956	0.39917	1.0434	0.046997	0.079803	0.21591	0.06012	0.16876	0.037537	-0.01709	-0.074768	0.002899	1.0139	0.32577	0.002136	-0.012207
3.767	0.002136	-0.49622	-0.02121	0.028992	0.005951	0.00473	0.46371	0.010223	-0.050964	0.004272	-0.10086	0.000305	-0.010986	0.017853	0.067902	-0.008698	-0.08606	0.43045	0.4892	-0.024261	0.16174	0.19623	0.10056	0.13138	0.38559	-0.018921	0.095673	-0.000763	0.84457	0.16464	-0.000763	-0.0177
3.768	-0.003662	-0.4834	-0.016479	-0.000305	0.012512	-0.004425	0.38788	0.018158	-0.07019	0.021973	-0.07782	0.006409	-0.013428	-0.055389	0.003357	-0.007477	-0.039368	0.578	0.46524	-0.11246	0.010834	0.06546	0.10529	0.1355	0.53268	-0.028381	0.14862	0.000305	0.13229	0.026703	0.000916	-0.012512
3.769	-0.00946	-0.48386	-0.013885	-0.020294	0.006561	-0.002899	0.3093	0.022888	-0.080566	0.030365	-0.042419	0.001526	-0.028534	-0.12116	-0.058746	-0.001221	-0.000458	0.61249	0.62042	-0.068359	0.013275	-0.032806	0.13855	0.15274	0.34759	0.001068	0.12558	0.00351	-0.19943	0.023041	-0.003204	-0.023499
3.77	-0.011749	-0.48141	-0.00473	-0.016174	0.00885	-0.012512	0.23636	0.00824	-0.07309	0.027466	0.063019	0.000153	-0.0383	-0.10315	-0.058289	0	-0.001984	0.60242	0.5542	0.06012	-0.029144	-0.046387	0.068665	-0.051422	0.077667	-0.007782	-0.029449	0.001678	-0.73151	0.13229	-0.001831	-0.021057
3.771	-0.000153	-0.48782	0.012207	-0.041656	0.011902	-0.00061	0.11688	0.00946	-0.059357	0.033722	0.09903	0.006104	-0.062256	-0.08667	0.061493	-0.007782	0.002899	0.62378	0.41855	0.13458	-0.14191	-0.024414	0.040588	-0.2446	-0.090179	-0.019073	-0.077209	-0.001984	0.19424	0.18158	0.000458	-0.024719
